# xmcd
#
# Track frame offsets:
#	150
#	22185
#	43152
#	62085
#	86802
#	104820
#	123895
#	141127
#	160777
#
# Disc length: 2349 seconds
#
# Revision: 1
# Processed by: cddbd v1.5.2PL0 Copyright (c) Steve Scherf et al.
# Submitted via: audiograbber 1.83.01
#
DISCID=7f092b09
DTITLE=Rosco Martinez - Aqui Estoy
DYEAR=1900
DGENRE=
TTITLE0=Tu Lievas Mi Amor
TTITLE1=Capturame
TTITLE2=Marie Ana
TTITLE3=Un Mundo Ideal
TTITLE4=Dulces Tiempos
TTITLE5=Aqui Estoy
TTITLE6=Una Noche
TTITLE7=La Casa Da Paquito
TTITLE8=Preferi Perderte
EXTD=
EXTT0=
EXTT1=
EXTT2=
EXTT3=
EXTT4=
EXTT5=
EXTT6=
EXTT7=
EXTT8=
PLAYORDER=
